<svg width="155" height="164" viewBox="0 0 155 164" fill="none" xmlns="http://www.w3.org/2000/svg">
<rect width="155" height="155" rx="8" fill="url(#paint0_linear)"/>
<path d="M100.324 137H84.3281V107.344C84.3281 99.7943 81.5521 96.0195 76 96.0195C73.3594 96.0195 71.2096 97.1536 69.5508 99.4219C67.8919 101.69 67.0625 104.517 67.0625 107.902V137H51.0156V107.039C51.0156 99.6927 48.2904 96.0195 42.8398 96.0195C40.0977 96.0195 37.8971 97.1029 36.2383 99.2695C34.6133 101.436 33.8008 104.382 33.8008 108.105V137H17.7539V85H33.8008V93.125H34.0039C35.6628 90.349 37.9818 88.0977 40.9609 86.3711C43.974 84.6107 47.2578 83.7305 50.8125 83.7305C58.1589 83.7305 63.1862 86.9635 65.8945 93.4297C69.8555 86.9635 75.6784 83.7305 83.3633 83.7305C94.6706 83.7305 100.324 90.7044 100.324 104.652V137Z" fill="black"/>
<defs>
<linearGradient id="paint0_linear" x1="77.5" y1="0" x2="77.5" y2="155" gradientUnits="userSpaceOnUse">
<stop stop-color="#FEE140"/>
<stop offset="1" stop-color="#FA709A"/>
</linearGradient>
</defs>
</svg>
